<svg width="198" height="35" viewBox="0 0 198 35" fill="none" xmlns="http://www.w3.org/2000/svg" class="sc-631dbb9d-1 dEmuyH"><path fill-rule="evenodd" clip-rule="evenodd" d="M115.224 11.7736C116.871 11.7736 118.344 12.1266 119.644 12.8361C120.944 13.543 121.962 14.544 122.703 15.8357C123.44 17.1275 123.811 18.6165 123.811 20.3036C123.811 21.9907 123.44 23.4866 122.703 24.7879C121.962 26.09 120.944 27.0954 119.644 27.804C118.344 28.5108 116.871 28.8656 115.224 28.8656C113.29 28.8656 111.7 28.3265 110.449 27.2502C110.198 27.0348 109.805 27.2191 109.805 27.547V33.0124C109.805 33.2036 109.697 33.3784 109.525 33.4649L106.594 34.9435C106.252 35.1166 105.845 34.8709 105.845 34.491V12.3516C105.845 12.1362 106.022 11.9614 106.241 11.9614H109.22C109.439 11.9614 109.616 12.1362 109.616 12.3516V14.1486C110.271 13.3578 111.079 12.7626 112.039 12.3672C113 11.9718 114.061 11.7736 115.224 11.7736ZM183.465 11.9617C183.598 12.0482 183.697 12.1131 183.829 12.1987L188.687 23.4609C188.824 23.7776 189.279 23.7776 189.416 23.4618L194.302 12.1978C194.435 12.1122 194.534 12.0473 194.666 11.9617H197.604C197.889 11.9617 198.08 12.2489 197.967 12.5076L190.285 29.9914C189.545 31.8032 188.648 33.0784 187.594 33.8182C186.537 34.5579 185.258 34.9282 183.759 34.9282H180.142C179.924 34.9282 179.746 34.7535 179.746 34.538V32.0688C179.746 31.8533 179.924 31.6786 180.142 31.6786H183.728C184.425 31.6786 185 31.5021 185.453 31.1473C185.908 30.7926 186.325 30.1999 186.705 29.365L186.99 28.7092L179.849 12.5076C179.735 12.2498 179.927 11.9617 180.212 11.9617H183.465ZM51.9186 11.7734C53.5863 11.7734 55.0488 12.1065 56.306 12.7727C57.4447 13.3766 58.3281 14.2202 58.9536 15.3034C59.0615 15.4903 58.9887 15.736 58.801 15.8441L56.4147 17.2181C56.2375 17.3201 56.0164 17.2622 55.8971 17.0961C55.4471 16.4749 54.9084 15.9973 54.2776 15.6642C53.5486 15.2774 52.7512 15.0853 51.8862 15.0853C50.407 15.0853 49.1823 15.5595 48.2103 16.5069C47.2383 17.4551 46.7531 18.7209 46.7531 20.3033C46.7531 21.8866 47.233 23.1533 48.1954 24.1007C49.1551 25.0489 50.3869 25.5231 51.8862 25.5231C52.7512 25.5231 53.5486 25.3301 54.2776 24.9425C54.9084 24.6111 55.4471 24.1335 55.8971 23.5115C56.0164 23.3471 56.2375 23.2883 56.4147 23.3912L58.7966 24.7625C58.9861 24.8707 59.0589 25.1199 58.9475 25.3059C58.3027 26.3891 57.4122 27.2379 56.2735 27.8504C55.0181 28.5279 53.5662 28.8662 51.9186 28.8662C50.164 28.8662 48.591 28.501 47.197 27.7726C45.8021 27.0432 44.7143 26.0275 43.9326 24.7253C43.1518 23.4241 42.7606 21.9507 42.7606 20.3033C42.7606 18.6586 43.1518 17.1904 43.9326 15.8978C44.7143 14.606 45.7969 13.5963 47.1795 12.8661C48.5638 12.1385 50.143 11.7734 51.9186 11.7734ZM91.2707 11.7736C92.3682 11.7736 93.3771 11.9614 94.2965 12.3352C95.215 12.7106 96.0124 13.2635 96.6897 13.992V12.3516C96.6897 12.1362 96.8669 11.9614 97.0854 11.9614H100.254C100.473 11.9614 100.65 12.1362 100.65 12.3516V28.2565C100.65 28.4719 100.473 28.6467 100.254 28.6467H97.2757C97.0564 28.6467 96.8792 28.4719 96.8792 28.2565V26.4915C96.2239 27.2823 95.4159 27.8766 94.4553 28.272C93.4937 28.6674 92.4322 28.8656 91.2707 28.8656C89.6231 28.8656 88.1493 28.5108 86.85 27.804C85.5516 27.0954 84.5366 26.0952 83.8093 24.8035C83.0803 23.5117 82.7162 22.0124 82.7162 20.3036C82.7162 18.5957 83.0803 17.1006 83.8093 15.8184C84.5366 14.5388 85.5516 13.543 86.85 12.8361C88.1493 12.1266 89.6231 11.7736 91.2707 11.7736ZM147.701 11.7729C149.348 11.7729 150.821 12.1319 152.121 12.8518C153.421 13.5699 154.434 14.5813 155.163 15.8825C155.892 17.1847 156.256 18.6901 156.256 20.3971C156.256 20.6688 156.192 21.553 156.192 21.553H143.421C143.164 21.553 142.962 21.7961 143.032 22.0401C143.321 23.0429 143.889 23.8544 144.738 24.4756C145.721 25.1946 146.94 25.5537 148.397 25.5537C150.107 25.5537 151.542 25.0415 152.697 24.0188C152.863 23.8717 153.112 23.8769 153.258 24.0422L154.881 25.8825C155.014 26.0339 155.017 26.264 154.879 26.4111C154.159 27.1776 153.277 27.7668 152.231 28.1778C151.07 28.6372 149.762 28.8656 148.304 28.8656C146.444 28.8656 144.807 28.5005 143.392 27.7729C141.977 27.0435 140.883 26.0278 140.112 24.7248C139.341 23.4236 138.956 21.9501 138.956 20.3037C138.956 18.6797 139.331 17.2149 140.081 15.9137C140.829 14.6116 141.871 13.5967 143.201 12.8665C144.532 12.138 146.033 11.7729 147.701 11.7729ZM131.019 8.27359C131.238 8.27359 131.415 8.44836 131.415 8.66465V11.6954C131.415 11.9109 131.592 12.0856 131.811 12.0856H135.549C135.769 12.0856 135.946 12.2604 135.946 12.4758V14.8205C135.946 15.0359 135.769 15.2116 135.549 15.2116H131.811C131.592 15.2116 131.415 15.3863 131.415 15.6018V23.1471C131.415 23.9596 131.621 24.5799 132.032 25.0073C132.444 25.4338 133.02 25.6476 133.759 25.6476C133.804 25.6476 134.975 25.6498 135.413 25.6507L135.576 25.651C135.796 25.651 135.974 25.8284 135.972 26.0455L135.947 28.4793C135.944 28.6939 135.768 28.8661 135.551 28.8661H133.285C131.426 28.8661 129.989 28.3868 128.976 27.4281C127.961 26.4704 127.455 25.0757 127.455 23.2423V8.66465C127.455 8.44836 127.631 8.27359 127.85 8.27359H131.019ZM65.97 5.46153C66.1885 5.46153 66.3657 5.6363 66.3657 5.85174V13.0164C66.3657 13.3374 66.7394 13.526 66.9947 13.3244C67.5167 12.9109 68.1159 12.576 68.7896 12.3199C69.7512 11.9565 70.8232 11.7731 72.0058 11.7731C74.1402 11.7731 75.8492 12.3883 77.1388 13.6169C78.4276 14.8463 79.0715 16.6684 79.0715 19.084V28.2568C79.0715 28.4722 78.8943 28.647 78.6758 28.647H75.5071C75.2886 28.647 75.1105 28.4722 75.1105 28.2568V19.585C75.1105 18.128 74.7631 17.0283 74.0657 16.2886C73.3691 15.5488 72.3751 15.1785 71.0873 15.1785C69.6301 15.1785 68.4773 15.612 67.6342 16.4755C66.7885 17.3398 66.3657 18.5857 66.3657 20.2105V28.2568C66.3657 28.4722 66.1885 28.647 65.97 28.647H62.8012C62.5819 28.647 62.4047 28.4722 62.4047 28.2568V5.85174C62.4047 5.6363 62.5819 5.46153 62.8012 5.46153H65.97ZM169.43 11.7792C169.654 11.7723 169.849 11.9565 169.849 12.178V15.4909C169.511 15.4303 169.203 15.3983 168.93 15.3983C167.389 15.3983 166.184 15.8404 165.318 16.7272C164.451 17.6115 164.018 18.8876 164.018 20.5548V28.2568C164.018 28.4722 163.841 28.647 163.622 28.647H160.454C160.235 28.647 160.057 28.4722 160.057 28.2568V12.3519C160.057 12.1365 160.235 11.9617 160.454 11.9617H163.434C163.652 11.9617 163.829 12.1365 163.829 12.3519V14.3973C164.914 12.7344 166.78 11.8614 169.43 11.7792ZM176.772 5.46171C176.991 5.46171 177.169 5.63647 177.169 5.85191V28.257C177.169 28.4724 176.991 28.6472 176.772 28.6472H173.604C173.386 28.6472 173.208 28.4724 173.208 28.257V5.85191C173.208 5.63647 173.386 5.46171 173.604 5.46171H176.772ZM91.7146 15.0856C90.2565 15.0856 89.0564 15.5641 88.1186 16.5236C87.1772 17.4822 86.7079 18.7411 86.7079 20.3036C86.7079 21.867 87.1772 23.1276 88.1186 24.0854C89.0564 25.0423 90.2565 25.5233 91.7146 25.5233C93.1727 25.5233 94.3763 25.0423 95.3255 24.0854C96.2774 23.1276 96.7511 21.867 96.7511 20.3036C96.7511 18.7411 96.2774 17.4822 95.3255 16.5236C94.3763 15.5641 93.1727 15.0856 91.7146 15.0856ZM114.781 15.0856C113.829 15.0856 112.974 15.2993 112.214 15.7267C111.452 16.1533 110.851 16.7624 110.407 17.5531C109.964 18.3465 109.742 19.2628 109.742 20.3036C109.742 21.3453 109.964 22.2633 110.407 23.054C110.851 23.8448 111.452 24.4557 112.214 24.8822C112.974 25.3096 113.829 25.5233 114.781 25.5233C116.238 25.5233 117.437 25.0423 118.377 24.0854C119.316 23.1276 119.786 21.867 119.786 20.3036C119.786 18.7411 119.316 17.4822 118.377 16.5236C117.437 15.5641 116.238 15.0856 114.781 15.0856ZM147.701 14.8988C146.434 14.8988 145.361 15.2674 144.486 16.0071C143.727 16.6482 143.224 17.4719 142.979 18.479C142.92 18.7221 143.123 18.9592 143.375 18.9592H152C152.251 18.9592 152.454 18.7264 152.399 18.485C152.172 17.4927 151.682 16.6725 150.932 16.0227C150.065 15.2717 148.989 14.8988 147.701 14.8988Z" fill="#323446"></path><path fill-rule="evenodd" clip-rule="evenodd" d="M18.9474 35H2C0.89543 35 0 34.1046 0 33V7.63158C0 6.52701 0.89543 5.63158 2 5.63158H18.9474V35Z" fill="#FF5E5B"></path><path fill-rule="evenodd" clip-rule="evenodd" d="M18.9474 5.85714V35L33.4254 29.6062C34.4038 29.2417 35.0526 28.3076 35.0526 27.2635V2.02527C35.0526 0.920699 34.1572 0.0252686 33.0526 0.0252686C32.7834 0.0252686 32.5169 0.079638 32.2691 0.185117L18.9474 5.85714Z" fill="#E04444"></path></svg>