<svg width="107" height="50" viewBox="0 0 107 50" fill="none" xmlns="http://www.w3.org/2000/svg">
<g clip-path="url(#clip0_1233_5202)">
<path fill-rule="evenodd" clip-rule="evenodd" d="M98.7919 29.7778C98.5203 29.9592 98.2236 30.0989 97.9116 30.1923C97.5608 30.2954 97.197 30.3458 96.8325 30.3417C96.3184 30.342 95.8091 30.2407 95.3338 30.0433C94.848 29.8426 94.4059 29.5472 94.0332 29.1737C93.638 28.7764 93.3243 28.3036 93.1109 27.7826C92.8805 27.2363 92.765 26.6094 92.765 25.9021V25.869C92.7658 25.1737 92.8805 24.5496 93.1109 23.9966C93.3235 23.4724 93.6363 22.9966 94.0332 22.5971C94.4075 22.2231 94.8488 21.9251 95.3338 21.7194C95.8083 21.5169 96.3176 21.4128 96.8325 21.4131C97.2003 21.409 97.5665 21.459 97.9197 21.5615C98.2317 21.6538 98.5308 21.7874 98.8089 21.9587C99.07 22.1226 99.31 22.3176 99.5259 22.5395C99.7344 22.7545 99.9244 22.9872 100.093 23.2351V18.0667H101.362V30.1593H100.093V28.4364C99.9155 28.6929 99.7199 28.9367 99.5089 29.1657C99.2947 29.3975 99.0538 29.603 98.7919 29.7778ZM94.9588 28.3038C95.2296 28.5881 95.5545 28.8134 95.9142 28.966C96.2796 29.1214 96.6716 29.2003 97.0677 29.1979C97.4614 29.1982 97.851 29.1165 98.2115 28.9576C98.5809 28.7973 98.9164 28.5668 99.1993 28.2785C99.4943 27.9796 99.7296 27.6253 99.8912 27.2355C100.062 26.8324 100.147 26.3822 100.147 25.8848V25.8517C100.153 25.3889 100.066 24.9296 99.8912 24.5021C99.7304 24.1139 99.4951 23.762 99.1993 23.4667C98.9139 23.1832 98.5793 22.9557 98.2115 22.7956C97.8502 22.6371 97.4614 22.5555 97.0677 22.5557C96.6668 22.5525 96.2699 22.6282 95.8981 22.7786C95.5408 22.9243 95.2182 23.1448 94.9507 23.4256C94.671 23.7238 94.4528 24.0755 94.3089 24.4603C94.1496 24.8695 94.0696 25.3333 94.0696 25.8517V25.8848C94.0704 26.3931 94.1504 26.8515 94.3089 27.2602C94.4552 27.6484 94.6759 28.0031 94.9588 28.3038ZM91.7634 26.3987C91.7739 26.3134 91.7796 26.2276 91.7812 26.1418V25.9516C91.7853 25.3502 91.6955 24.7519 91.5169 24.1784C91.3544 23.6515 91.0917 23.162 90.7433 22.7378C90.3998 22.3269 89.973 21.9962 89.4912 21.7683C88.9973 21.5316 88.4371 21.4129 87.8115 21.4125C87.2465 21.4064 86.6879 21.5251 86.173 21.7604C85.6828 21.9855 85.2428 22.3094 84.88 22.7124C84.5103 23.1282 84.2226 23.6117 84.0322 24.137C83.8269 24.696 83.7235 25.2882 83.7271 25.8845C83.7271 26.5477 83.8397 27.155 84.0649 27.7066C84.2741 28.2356 84.5848 28.7172 84.9788 29.1237C85.3643 29.516 85.8237 29.8256 86.3298 30.0341C86.852 30.2508 87.4114 30.3605 87.9764 30.3569C88.7888 30.3569 89.4694 30.2108 90.0174 29.9185C90.5719 29.6218 91.0683 29.2263 91.4837 28.7509L90.6932 28.0386C90.3553 28.3925 89.9633 28.6889 89.5324 28.9163C89.1097 29.137 88.602 29.2475 88.0095 29.2477C87.6442 29.2492 87.2812 29.1848 86.9385 29.0576C86.5998 28.9315 86.2878 28.7431 86.017 28.5021C85.7358 28.2517 85.5063 27.9479 85.3413 27.6077C85.158 27.2291 85.0463 26.819 85.0118 26.3987H91.7634ZM85.3197 24.2186C85.1577 24.5779 85.0547 24.9617 85.0147 25.3547H90.4984C90.4677 24.9798 90.3844 24.6113 90.2518 24.26C90.1266 23.926 89.9455 23.6166 89.7159 23.3456C89.4888 23.0799 89.2083 22.8664 88.893 22.7196C88.5689 22.5663 88.1987 22.4896 87.7816 22.4896C87.43 22.4872 87.0824 22.5599 86.7607 22.7029C86.4438 22.8446 86.1584 23.049 85.9208 23.3042C85.6716 23.573 85.4685 23.882 85.3197 24.2186Z" fill="#00C8DC"/>
<path fill-rule="evenodd" clip-rule="evenodd" d="M49.9858 30.1593H51.2547V22.722H53.9387V21.6286H51.2379V20.9325C51.2379 19.7179 51.7319 19.1104 52.7199 19.1104C52.9244 19.1089 53.1285 19.1282 53.3291 19.1679C53.5162 19.2071 53.7249 19.2597 53.9554 19.3255V18.216C53.7498 18.1398 53.5373 18.0843 53.3209 18.0501C53.0672 18.0144 52.8113 17.9977 52.5551 18.0002C51.7748 18.0002 51.1655 18.2213 50.7272 18.6633C50.2327 19.1602 49.9856 19.8943 49.9858 20.866V30.1593ZM59.5558 30.1589H60.8233V18.294H59.5558V30.1589ZM67.4623 29.9438C67.2421 30.0657 67.0068 30.1576 66.7628 30.2171C66.4902 30.2806 66.2112 30.3112 65.9315 30.3083C65.6083 30.3109 65.2864 30.2662 64.9757 30.1756C64.6925 30.095 64.4309 29.9507 64.2103 29.7534C63.9863 29.5461 63.814 29.2877 63.7079 28.9997C63.587 28.6909 63.5266 28.3199 63.5266 27.8896V18.3069H64.7948V21.5955H67.4955V22.722H64.7948V27.7115C64.795 28.2399 64.9266 28.6087 65.1896 28.818C65.4531 29.0277 65.7991 29.1326 66.2274 29.1326C66.4349 29.1339 66.642 29.1128 66.8452 29.0699C67.0584 29.0205 67.2654 28.9469 67.4623 28.8504V29.9438ZM76.5135 26.1422C76.5127 26.2281 76.5074 26.3138 76.4976 26.3991H69.7452C69.7805 26.8194 69.8923 27.2294 70.0753 27.6082C70.2402 27.9483 70.4697 28.2522 70.7505 28.5025C71.0212 28.7439 71.3338 28.9321 71.6724 29.0577C72.0153 29.185 72.3779 29.2495 72.7432 29.2482C73.3357 29.2479 73.8432 29.1375 74.2657 28.9168C74.6968 28.6892 75.089 28.3929 75.4272 28.0391L76.2175 28.7508C75.8025 29.2263 75.3059 29.622 74.752 29.9187C74.2022 30.2116 73.5217 30.358 72.7105 30.358C72.1456 30.3615 71.5856 30.2515 71.0628 30.0346C70.5569 29.8263 70.0977 29.5166 69.7126 29.1242C69.3188 28.7174 69.0083 28.2359 68.7986 27.7071C68.5737 27.1555 68.4612 26.5482 68.4612 25.8851C68.4575 25.2886 68.5606 24.6965 68.7657 24.1375C68.956 23.6122 69.2438 23.1287 69.6138 22.7132C69.9763 22.3102 70.416 21.986 70.9061 21.7605C71.4211 21.5254 71.9803 21.4068 72.5451 21.413C73.1711 21.4129 73.731 21.5318 74.2248 21.7694C74.7065 21.9966 75.1334 22.3272 75.4762 22.7383C75.8248 23.1625 76.0877 23.652 76.2502 24.1789C76.429 24.7521 76.5178 25.3503 76.5135 25.9515V26.1422ZM79.5982 30.1591H78.3301V21.5953H79.5982V23.8316C79.7493 23.4827 79.9429 23.1542 80.1745 22.8539C80.4008 22.5603 80.6672 22.3009 80.9656 22.0835C81.2613 21.8686 81.5894 21.7038 81.9372 21.5953C82.3052 21.4823 82.6891 21.4318 83.0733 21.4461V22.8208H82.9745C82.5265 22.8185 82.0822 22.9025 81.6654 23.0687C81.2557 23.2334 80.8873 23.4882 80.5867 23.8147C80.2793 24.1461 80.0376 24.5575 79.8615 25.0491C79.686 25.5408 79.5982 26.1066 79.5982 26.7466V30.1591ZM69.7488 25.3552C69.7892 24.9623 69.8921 24.5787 70.0535 24.2191C70.2028 23.8828 70.4059 23.5739 70.6545 23.3047C70.8924 23.0498 71.178 22.8454 71.4946 22.7034C71.8163 22.5603 72.1642 22.4877 72.5154 22.49C72.9327 22.49 73.3034 22.5667 73.6274 22.7201C73.9425 22.8674 74.2231 23.0807 74.4508 23.3461C74.6803 23.617 74.8614 23.9265 74.9859 24.2606C75.1184 24.6119 75.2016 24.9804 75.233 25.3552H69.7488ZM57.1749 20.0054H55.7261V18.5967H57.1749V20.0054ZM57.0778 30.1597H55.8259V21.595H57.0778V30.1597Z" fill="#00C8DC"/>
<path d="M24.4 44C35.1143 44 43.8 35.2696 43.8 24.5C43.8 13.7304 35.1143 5 24.4 5C13.6857 5 5 13.7304 5 24.5C5 35.2696 13.6857 44 24.4 44Z" fill="#00C8DC"/>
<path fill-rule="evenodd" clip-rule="evenodd" d="M32.7751 16.4006H15.4407C15.3714 16.4007 15.3074 16.4384 15.2727 16.4996C15.238 16.5607 15.2379 16.6361 15.2724 16.6974L23.6125 31.2158L23.6656 31.3077L22.0606 34.1072C22.0314 34.1564 22.0306 34.218 22.0585 34.2682C22.0865 34.3182 22.1388 34.3489 22.1954 34.3484H26.0784C26.135 34.3491 26.1875 34.3185 26.2157 34.2684C26.2439 34.2184 26.2434 34.1567 26.2144 34.1072L24.5876 31.2713L24.6219 31.213L32.9433 16.6974C32.9778 16.6361 32.9777 16.5607 32.9431 16.4996C32.9084 16.4384 32.8444 16.4007 32.7751 16.4006ZM31.5994 17.2861L24.1166 30.3371L16.6178 17.2861H31.5994Z" fill="white"/>
</g>
<defs>
<clipPath id="clip0_1233_5202">
<rect width="97" height="39" fill="white" transform="translate(5 5)"/>
</clipPath>
</defs>
</svg>
