<svg width="50" height="50" viewBox="0 0 50 50" fill="none" xmlns="http://www.w3.org/2000/svg">
<path d="M31.6383 34.2546H14.4419V37.5056H31.6383V34.2546Z" fill="#DCCCA3"/>
<path d="M21.2921 30.4147L20.7464 29.8865H19.3926H19.1299V33.117H23.9796L22.0195 31.1665L21.2921 30.4147Z" fill="#DCCCA3"/>
<path d="M23.9795 33.117H31.6381V29.8865H31.1935H27.2733L23.9795 33.117Z" fill="#DCCCA3"/>
<path d="M31.1933 28.8096H31.6379V25.5791L28.3643 28.8096H31.1933Z" fill="#DCCCA3"/>
<path d="M19.4532 28.5659L19.1299 28.2408L21.8174 25.5588H19.1299V28.8097H19.3926H19.6755L19.4532 28.5659Z" fill="#DCCCA3"/>
<path d="M31.6585 38.5823H14.4419V41.8333H31.6585V38.5823Z" fill="#DCCCA3"/>
<path d="M22.8481 16.9644H14.4419V20.1949H26.0813L22.8481 16.9644Z" fill="#DCCCA3"/>
<path d="M26.0813 21.2717H14.4419V24.5226H22.8481L26.0813 21.2717Z" fill="#DCCCA3"/>
<path d="M13.3709 8.26831H10.1377V28.8097H14.4419V25.5588H13.3709V8.26831Z" fill="#FFA0D6"/>
<path d="M9.06666 8.26831H5.8335V33.117L14.4418 33.1374V29.8865H9.06666V8.26831Z" fill="#FFA0D6"/>
<path d="M19.13 25.5588H14.4419V28.8097H19.13V25.5588Z" fill="#FF6B86"/>
<path d="M19.13 29.8865H14.4419V33.117H19.13V29.8865Z" fill="#FF6B86"/>
<path d="M44.1666 13.2257L42.0046 11.072L32.3857 20.7433L42.0046 30.4146L44.1666 28.2609L36.6899 20.7433L44.1666 13.2257Z" fill="#48DEFF"/>
<path d="M31.6584 21.4951L41.277 31.1664L39.216 33.2389L31.6382 25.579V25.5587V21.4951" fill="#48DEFF"/>
<path d="M31.6382 19.9917H31.6585L41.2771 10.3204L39.1351 8.16675L31.6585 15.6843L24.1615 8.16675L22.0195 10.3204L28.6274 16.9644H31.6382V19.9917Z" fill="#48DEFF"/>
<path d="M21.2921 11.072L19.1299 13.2257L22.848 16.9642H27.1522L21.2921 11.072Z" fill="#48DEFF"/>
<path d="M31.6382 20.012L31.6584 19.9917H31.6382V20.012Z" fill="white"/>
<path d="M31.6382 21.4952H31.6584L31.6382 21.4749V21.4952Z" fill="white"/>
<path d="M31.6383 16.9644H28.6274L31.6383 19.9917V16.9644Z" fill="#0094FF"/>
<path d="M23.2926 29.8865L22.0195 31.1665L23.9797 33.117L27.2735 29.8865H23.2926Z" fill="#0094FF"/>
<path d="M27.5968 25.5588L24.3838 28.8097H28.3647L31.6382 25.5792V25.5588H27.5968Z" fill="#0094FF"/>
<path d="M31.6585 21.4951H31.6383L28.6274 24.5225H31.6383V21.4951" fill="#0094FF"/>
<path d="M20.7466 29.8865L21.2921 30.4147L21.8175 29.8865H20.7466Z" fill="#0094FF"/>
<path d="M26.1216 25.5588H21.8175L19.1299 28.2408L19.6755 28.8097H22.8884L26.1216 25.5588Z" fill="#0094FF"/>
<path d="M30.3653 20.1949L28.7689 18.5898L27.1523 16.9644H22.8481L26.0813 20.1949H30.3653Z" fill="#0094FF"/>
<path d="M30.3653 21.2717H26.0813L22.8481 24.5226H27.1523L30.3653 21.2717Z" fill="#0094FF"/>
</svg>
