<svg width="50" height="50" viewBox="0 0 50 50" fill="none" xmlns="http://www.w3.org/2000/svg">
<g clip-path="url(#clip0_1409_1466)">
<path d="M44.6554 14.4831C44.6554 13.9275 44.6647 13.3765 44.6415 12.8209C44.6183 12.2653 44.6654 11.7312 44.6894 11.1741C44.7311 10.205 44.6438 9.22838 44.7179 8.25936C44.7612 7.69385 44.45 7.12757 43.8377 7.07561C43.3257 7.03205 42.8192 7.08478 42.3049 7.03892C42.0068 7.01218 41.7598 7.02287 41.498 7.18336C41.2215 7.35378 41.1119 7.59221 40.9667 7.86503C40.7081 8.35031 40.5034 8.8585 40.2579 9.34683C40.1668 9.52719 40.0726 9.70678 39.9876 9.88942C39.8432 10.1951 39.6378 10.4626 39.4741 10.7606C39.3104 11.0587 39.139 11.3315 38.9599 11.6158C38.7915 11.8825 38.6641 12.2271 38.4456 12.4564C38.1854 12.2271 38.0147 11.8901 37.8194 11.6112C37.5962 11.291 37.3692 10.9738 37.1576 10.6468C36.8673 10.1966 36.6055 9.7297 36.326 9.28111C35.9669 8.70031 35.6511 8.08283 35.2658 7.52343C34.8164 6.86851 34.1539 7.04274 33.4597 7.04274C32.8829 7.04274 32.3014 7.02211 31.9601 7.58228C31.7408 7.94298 31.8451 8.4359 31.8644 8.83252C31.8891 9.31932 31.9092 9.80689 31.92 10.2952C31.9393 11.1229 31.9408 11.9467 31.9408 12.7743C31.9408 13.4697 31.9153 14.1659 31.9153 14.8614C31.9153 15.8548 31.9624 16.8567 31.9084 17.8479C31.8775 18.4134 31.869 18.9743 31.869 19.5399C31.869 20.0259 31.869 20.5112 31.869 20.9972C31.869 21.5665 31.9794 22.2291 32.6613 22.3437C33.1246 22.4202 33.6095 22.2857 34.0828 22.3231C34.306 22.3407 34.5276 22.3995 34.75 22.3613C35.1245 22.2925 35.4364 22.0449 35.5276 21.6735C35.5994 21.3816 35.5353 21.043 35.5391 20.742C35.5484 19.9594 35.4982 19.1776 35.5028 18.3958C35.5028 18.162 35.5615 17.9335 35.5801 17.7012C35.5911 17.4602 35.5891 17.2189 35.5739 16.9782C35.57 16.7925 35.5739 16.6061 35.5739 16.4204C35.5739 16.1689 35.5739 15.9175 35.5739 15.6661C35.5739 15.4873 35.5469 14.898 35.8125 15.0624C35.936 15.1388 36.0272 15.3459 36.1044 15.4651C36.2151 15.6558 36.3395 15.8384 36.4766 16.0115C36.6935 16.2606 36.9067 16.5121 37.1036 16.7757C37.5221 17.3382 37.8603 18.2529 38.7367 18.0504C39.0711 17.974 39.2162 17.7677 39.3992 17.5017C39.6289 17.1742 39.8755 16.8586 40.1382 16.5564C40.3907 16.2576 40.5652 15.8227 40.9104 15.6195C40.9922 15.637 40.9621 16.4845 40.9629 16.5495C40.9667 16.9064 40.908 17.2449 40.9335 17.6041C40.9621 18.0038 40.9096 18.4058 40.9111 18.807L40.9158 19.7806C40.9158 20.4034 40.9258 21.0262 40.9158 21.6491C40.9104 21.941 40.8818 22.2322 40.8779 22.5248C40.8725 22.8894 40.8779 23.3876 41.0702 23.7086C41.2864 24.0701 41.6107 24.0984 41.9906 24.0747C42.3937 24.0494 42.7999 24.0815 43.2029 24.0915C43.9249 24.1098 44.6438 23.8813 44.6701 23.0552C44.6925 22.4018 44.5928 21.7629 44.6029 21.1118C44.6145 20.5349 44.6299 19.9579 44.6461 19.3809C44.6616 18.8253 44.7048 18.2621 44.6932 17.7065C44.6832 17.193 44.7311 16.6817 44.7226 16.1682C44.7179 15.6034 44.6554 15.044 44.6554 14.4831Z" fill="#FDC010"/>
<path d="M17.9941 8.10813C17.9941 7.47536 17.4782 7.04359 16.8597 7.03824C16.6404 7.03824 16.4211 7.03824 16.2018 7.03824C15.8482 7.03289 15.4799 6.945 15.1332 7.05123C14.7702 7.16127 14.5764 7.48148 14.3926 7.78792C14.1957 8.11501 14.0143 8.44591 13.8058 8.76535C13.4969 9.23763 13.239 9.73513 12.941 10.2128C12.6807 10.6293 12.4066 11.0343 12.1279 11.4355C11.8962 11.7664 11.687 12.1852 11.3812 12.4511C11.1858 12.2448 11.0723 11.9429 10.9241 11.703C10.7441 11.4095 10.548 11.1321 10.3889 10.8279C10.2299 10.5238 10.0029 10.2456 9.85846 9.92771C9.73182 9.65259 9.58434 9.39276 9.45307 9.11841C9.31408 8.83031 9.21524 8.52539 9.07239 8.24034C8.93803 7.9721 8.78823 7.61827 8.59133 7.39512C8.09405 6.83343 7.42458 7.1009 6.78136 7.0688C6.27868 7.04358 5.71576 6.97175 5.35207 7.39971C4.98838 7.82766 5.12891 8.39318 5.13355 8.90367C5.13895 9.50357 5.16675 10.105 5.14513 10.7049C5.12196 11.3468 5.20767 11.9804 5.18914 12.6238C5.17138 13.2436 5.17061 13.8596 5.17138 14.4793C5.17138 15.2688 5.07795 16.0505 5.11347 16.8415C5.16057 17.8816 5.17138 18.927 5.20227 19.9694C5.21462 20.379 5.23856 20.7909 5.21462 21.2006C5.17756 21.8509 5.09339 22.5066 5.15826 23.1592C5.21848 23.7706 5.75437 24.0671 6.32964 24.0862C6.69797 24.0984 7.0717 24.0702 7.44002 24.0625C7.71028 24.0572 8.02842 24.1321 8.28941 24.0663C8.95965 23.8982 8.95579 22.9888 8.94576 22.4493C8.93726 21.951 8.91255 21.4558 8.91101 20.956C8.91101 19.8097 8.84923 18.6527 8.89479 17.5171C8.91641 16.9905 8.83919 16.467 8.86777 15.9397C8.86777 15.8801 8.87703 15.6707 8.93263 15.6448C9.00984 15.6081 9.19131 15.874 9.22296 15.913C9.45462 16.2118 9.64689 16.519 9.90865 16.7941C10.2175 17.122 10.399 17.6676 10.7758 17.9221C11.2986 18.2767 11.9441 17.9863 12.2391 17.4995C12.5402 16.9943 12.8893 16.5186 13.2815 16.0788C13.4784 15.8633 13.6143 15.6203 13.7741 15.3773C13.9757 15.0716 14.1764 14.8133 14.2374 15.3566C14.3309 16.1644 14.1602 16.9951 14.2537 17.8021C14.3641 18.739 14.3108 19.7042 14.2853 20.6496C14.2699 21.2219 14.1015 22.0534 14.6799 22.4172C15.1486 22.7114 15.6621 22.4936 16.174 22.5074C16.7787 22.5234 17.4798 22.7366 17.8126 22.0664C18.0219 21.6469 17.9547 21.1555 17.9547 20.7015C17.9547 19.8945 17.9771 19.0837 17.9392 18.2767C17.9014 17.4697 17.9485 16.6665 17.9246 15.8587C17.913 15.4873 17.9639 15.119 17.9531 14.7476C17.9439 14.4365 17.9083 14.1278 17.9145 13.816C17.9222 13.3781 17.889 12.9387 17.8829 12.5C17.8736 11.8023 17.8898 11.1069 17.9006 10.4084C17.9153 9.64113 17.9941 8.87234 17.9941 8.10813Z" fill="#FDC010"/>
<path d="M24.2959 16.1635C23.4744 16.1635 23.3964 16.8062 23.4087 17.4627C23.4188 17.9701 23.3578 18.6029 23.9207 18.849C24.3569 19.04 24.9145 19.0117 25.3801 19.0247C25.9098 19.04 26.4349 19.0308 26.9646 19.0194C27.3738 19.0102 27.7815 19.0415 28.1908 19.0232C28.6178 19.0041 29.0402 18.9743 29.4695 18.9537C29.7421 18.9414 30.1088 18.9942 30.3281 19.1722C30.5737 19.3724 30.6525 19.7622 30.6702 20.0595C30.7034 20.5998 30.8247 21.1668 30.783 21.7071C30.722 22.4354 29.9583 22.3146 29.41 22.2856C29.0239 22.265 28.6494 22.3276 28.2672 22.3414C27.8549 22.3552 27.4441 22.3009 27.0317 22.3001C26.3916 22.3001 25.7507 22.3131 25.1106 22.3292C23.9338 22.3582 22.7586 22.2703 21.5825 22.3131C21.137 22.3292 20.3471 22.4392 19.9533 22.1748C19.7262 22.022 19.561 21.6819 19.5316 21.419C19.5108 21.2364 19.5378 20.3453 19.5147 20.0778C19.4374 19.202 19.473 18.2911 19.4807 17.4115C19.4807 17.1952 19.5216 16.9835 19.5262 16.7688C19.5324 16.4486 19.4807 16.1291 19.4807 15.8089C19.4807 15.2572 19.4575 14.7062 19.4575 14.1544C19.4575 13.5431 19.5587 12.9317 19.5247 12.3203C19.4861 11.6394 19.5247 10.973 19.5247 10.2914C19.5247 10.03 19.5517 9.77169 19.5463 9.51033C19.5378 9.08008 19.4629 8.65747 19.4845 8.22493C19.5216 7.49893 19.8405 7.02512 20.6173 7.04499C21.459 7.06639 22.3007 6.99303 23.1408 7.04499C23.7176 7.07862 24.299 7.05034 24.8728 7.04499C25.3183 7.03964 25.7646 7.00449 26.2094 7.0022C27.0426 7.0022 27.8881 7.10002 28.722 7.06028C29.3954 7.02894 30.2177 6.92501 30.1892 7.83136C30.176 8.22722 30.1451 8.59022 30.1853 8.98685C30.2254 9.36895 30.2455 9.67846 29.9861 9.98414C29.5475 10.5015 28.5877 10.2776 27.997 10.2959C27.3174 10.3166 26.6688 10.2035 25.9893 10.2004C25.3098 10.1974 24.4048 10.1156 23.7979 10.4236C23.6555 10.4953 23.5453 10.6171 23.489 10.7652C23.3145 11.2237 23.3454 11.6539 23.4226 12.1125C23.5153 12.6657 23.9346 12.7338 24.4071 12.7651C24.9183 12.798 25.431 12.8301 25.943 12.8369C26.2364 12.8408 26.5291 12.8537 26.8225 12.8583C27.251 12.8644 27.6757 12.8056 28.1051 12.8125C28.3969 12.8171 28.5869 12.8797 28.7545 13.1342C28.9089 13.3742 28.8703 13.6073 28.8502 13.8763C28.8201 14.2813 28.8155 14.6794 28.7954 15.0845C28.7676 15.6278 28.6101 16.0634 28.0163 16.1605C27.2148 16.2912 26.3368 16.1666 25.5276 16.1796C25.117 16.1958 24.7059 16.1904 24.2959 16.1635Z" fill="#FDC010"/>
<path d="M10.3434 28.9512C10.0346 28.8901 9.8284 28.9008 9.54115 29.0391C9.30178 29.1545 9.23228 29.3058 9.13499 29.545C8.87168 30.1969 9.05777 30.8931 9.03152 31.5763C9.00372 32.3015 9.03152 32.9992 9.06318 33.723C9.09329 34.3488 9.49019 34.4696 10.0353 34.5109C10.8909 34.575 11.7187 34.0798 12.2816 33.4792C12.4252 33.3263 12.5202 33.1276 12.6229 32.9442C12.7886 32.6815 12.9331 32.4063 13.0553 32.1212C13.2499 31.6211 13.2952 31.0763 13.1858 30.5515C13.0252 29.879 12.5557 29.3242 11.8731 29.1316C11.5932 29.0418 11.3023 28.9904 11.0083 28.9787C10.7867 28.9818 10.5666 28.9512 10.3434 28.9512ZM17.0613 30.2443C17.0613 30.8174 17.1339 31.3486 17.0227 31.9179C16.9579 32.2496 16.8683 32.5759 16.7764 32.8999C16.4799 33.9316 15.7293 34.6637 15.0066 35.4271C14.7247 35.7252 14.3711 36.0737 14.5888 36.5146C14.7433 36.8256 15.1294 37.0496 15.4251 37.207C15.612 37.3056 15.7865 37.424 15.9741 37.5195C16.1841 37.6265 16.4644 37.69 16.6752 37.7863C17.1563 38.0063 17.025 38.4228 17.0096 38.8477C16.9988 39.1534 17.0482 39.453 17.032 39.7564C17.0127 40.1133 16.9548 40.4602 16.9748 40.8194C17.0011 41.307 16.9385 41.6096 16.4706 41.8182C15.5834 42.2148 14.4522 41.5561 13.7889 40.986C13.3525 40.6179 12.9372 40.226 12.5449 39.8122C12.419 39.6769 11.7287 39.0969 11.5187 38.928C10.9735 38.4909 9.92878 37.7052 9.33884 38.4855C9.04928 38.8676 9.02997 39.3514 9.03383 39.8106C9.03769 40.2699 9.21066 40.7277 9.22224 41.1946C9.23074 41.5729 9.00063 41.8717 8.60914 41.9023C8.41455 41.9176 8.21842 41.8541 8.02769 41.8259C7.74455 41.7856 7.45749 41.7797 7.1729 41.8083C6.80921 41.8335 6.44783 41.8152 6.08491 41.8358C5.60462 41.8625 5.21931 41.8702 5.04325 41.3352C4.94828 41.0471 5.02318 40.7483 5.06101 40.4572C5.09023 40.1971 5.09824 39.9352 5.08495 39.6738C5.0628 39.0399 5.0793 38.4052 5.13437 37.7733C5.18919 37.1711 5.1197 36.5742 5.11429 35.972C5.10966 35.3484 5.09267 34.7287 5.11429 34.1051C5.13437 33.4341 5.06256 32.7654 5.08186 32.0921C5.10039 31.4364 5.15136 30.7846 5.18997 30.1296C5.24003 29.1168 5.22791 28.1018 5.15367 27.0904C5.12433 26.6319 5.04866 26.0167 5.35289 25.6269C5.7274 25.147 6.33355 25.3212 6.86481 25.3083C7.50571 25.2876 8.14584 25.2945 8.78751 25.3228C9.42918 25.351 10.0778 25.2846 10.7226 25.2677C11.6978 25.2425 12.863 25.2998 13.7688 25.714C14.5495 26.0709 15.3996 26.4332 15.9247 27.1416C16.4297 27.8233 16.8119 28.4751 16.9995 29.3127C17.0698 29.623 17.0644 29.9256 17.0644 30.2443H17.0613Z" fill="#FDC010"/>
<path d="M22.581 31.8291C22.581 32.4359 22.4736 33.035 22.4759 33.6426C22.4783 34.2501 22.4242 34.8477 22.442 35.4453C22.4597 36.043 22.5238 36.6176 22.5323 37.203C22.5408 37.8075 22.4968 38.399 22.5601 39.002C22.6319 39.6898 22.7462 40.6718 22.4389 41.3114C22.2304 41.7462 21.9385 41.9702 21.4351 41.9411C20.8497 41.9067 20.2884 41.9633 19.7023 41.9702C19.3293 41.974 18.8529 41.9908 18.683 41.5789C18.585 41.3397 18.6514 41.0271 18.6722 40.7757C18.6992 40.4586 18.7363 40.1429 18.7494 39.825C18.7981 38.6734 18.7193 37.5148 18.7093 36.3639C18.7008 35.4858 18.6676 34.6062 18.6622 33.7297C18.6583 33.1328 18.7309 32.5398 18.7325 31.943C18.7325 31.408 18.4807 30.7378 18.9209 30.316C19.3263 29.927 20.0258 30.1234 20.5208 30.1746C20.9548 30.2189 21.4073 30.1601 21.8451 30.1624C22.2265 30.1624 22.5941 30.5514 22.6041 30.9357C22.6126 31.2307 22.581 31.5341 22.581 31.8291Z" fill="#FDC010"/>
<path d="M23.9029 41.0852C23.9029 41.5307 24.5593 41.7569 24.9323 41.8211C25.5193 41.9114 26.1109 41.9693 26.7044 41.9946C27.0132 42.0129 27.3221 41.9793 27.631 41.9679C27.9955 41.9549 28.3607 41.977 28.7221 41.9189C29.2255 41.8425 29.6958 41.6133 30.1506 41.3978C30.5139 41.2343 30.849 41.0154 31.1436 40.7489C31.5338 40.3862 31.8864 39.9858 32.1961 39.5537C32.4648 39.193 32.5613 38.8338 32.7543 38.4364C33.02 37.8923 33.0408 37.2726 33.0416 36.6788C33.0416 35.43 32.759 34.3808 32.0841 33.3254C31.8324 32.9311 31.4749 32.6628 31.3258 32.5138C31.078 32.2639 30.7969 32.0553 30.5683 31.7886C30.3807 31.5685 30.129 31.4065 29.9112 31.2154C29.6317 30.9686 29.3522 30.7317 29.0526 30.5085C28.4008 30.024 27.746 29.4157 27.8557 28.5216C27.9391 27.8453 28.6448 27.3333 29.3228 27.3684C29.8449 27.3907 30.3654 27.4417 30.8818 27.5213C31.2996 27.59 31.6864 27.7543 32.0687 27.4624C32.4146 27.1988 32.2864 26.6753 32.2764 26.3016C32.2694 26.0333 32.281 25.7666 32.2679 25.4953C32.2523 25.2825 32.2549 25.0688 32.2756 24.8565C32.3003 24.6516 32.3273 24.417 32.1536 24.2642C32.0262 24.1519 31.8146 24.1045 31.6555 24.0609C31.2254 23.9547 30.7883 23.8781 30.3475 23.8317C29.0441 23.6589 27.5808 23.7598 26.3662 24.268C25.5168 24.6218 24.8265 25.0636 24.3709 25.8828C24.0248 26.502 23.8326 27.1938 23.8103 27.9011C23.7616 29.47 24.1354 31.1482 25.3044 32.28C25.6419 32.6063 25.967 32.9471 26.3222 33.2551C26.499 33.408 26.7082 33.6227 26.8773 33.7794C27.086 33.9536 27.3052 34.1152 27.5337 34.2631C27.8341 34.471 27.9916 34.6345 28.2642 34.8745C28.5678 35.1264 28.7997 35.4526 28.9367 35.8206C29.2294 36.6146 28.9722 37.6119 28.092 37.8839C27.6287 38.0284 27.1407 38.0016 26.6542 37.9603C26.4183 37.9461 26.1849 37.9038 25.9592 37.8342C25.6827 37.7302 25.3935 37.6628 25.099 37.634C24.8218 37.6187 24.4535 37.5874 24.1956 37.7013C23.9037 37.8297 23.9284 38.0734 23.9593 38.3425C24.0064 38.7559 23.9253 39.1571 23.906 39.5652C23.8829 40.0711 23.9029 40.5869 23.9029 41.0852Z" fill="#FDC010"/>
<path d="M34.2831 41.4117C34.5634 41.9023 35.0252 41.8824 35.5418 41.8755C36.1093 41.8679 36.6761 41.8664 37.2444 41.8755C38.2359 41.8924 39.2181 41.9061 40.2095 41.8694C41.0056 41.8404 41.7994 41.9222 42.5924 41.8817C42.9407 41.8641 43.2812 41.8167 43.6302 41.8389C43.9793 41.861 44.4024 41.9588 44.7113 41.7701C45.1746 41.4889 44.9615 40.6238 44.8974 40.205C44.8202 39.6914 44.9746 38.8455 44.4472 38.5107C44.1939 38.3487 43.8356 38.3197 43.5461 38.3449C43.1353 38.3808 42.7284 38.3908 42.3176 38.4099C41.5006 38.4481 40.645 38.4611 39.8273 38.4183C39.3161 38.3915 38.6073 38.3587 38.2945 37.8833C37.9965 37.4309 38.0745 36.6713 38.1023 36.1585C38.1401 35.4577 38.5447 35.139 39.2389 35.1337C39.5339 35.1337 39.8281 35.0779 40.123 35.0863C40.3454 35.0924 40.5601 35.1482 40.7817 35.1574C41.0304 35.1673 41.2751 35.1306 41.5238 35.1429C41.9392 35.1627 42.3539 35.1574 42.7693 35.1574C43.1971 35.1574 43.7484 35.2116 44.0488 34.8517C44.3229 34.5208 44.2395 33.9056 44.2426 33.5075C44.2426 33.0145 44.5067 32.3749 44.2225 31.9332C44.0511 31.668 43.8634 31.616 43.5615 31.6153C43.1114 31.6153 42.6643 31.6787 42.2156 31.6649C41.8651 31.6542 41.5207 31.5748 41.1717 31.571C40.74 31.5656 40.3115 31.6428 39.8798 31.642C39.3169 31.642 38.4204 31.6497 38.181 31.0184C38.059 30.6944 38.0946 30.3146 38.0969 29.976C38.0969 29.7109 38.0969 29.4296 38.2081 29.182C38.4027 28.7533 38.8822 28.6631 39.31 28.628C39.947 28.5753 40.5501 28.6815 41.1817 28.7204C41.5616 28.7441 41.9454 28.712 42.3253 28.7044C42.6712 28.6983 43.0272 28.751 43.3716 28.7235C43.6418 28.7013 43.9553 28.6135 44.1329 28.4033C44.3924 28.0976 44.3754 27.7828 44.3383 27.403C44.2991 27.0287 44.2942 26.6517 44.3237 26.2765C44.3491 25.9594 44.3715 25.5925 44.0681 25.3969C43.8511 25.2571 43.5754 25.2739 43.3291 25.2853C42.9059 25.3164 42.4813 25.3238 42.0573 25.3075C41.3245 25.2639 40.5848 25.225 39.8559 25.2907C39.2322 25.3417 38.6056 25.3474 37.981 25.3075C37.1517 25.2593 36.3294 25.3457 35.5008 25.3167C35.1642 25.3052 34.7711 25.2326 34.4847 25.4542C34.2923 25.6128 34.1606 25.8318 34.1117 26.0748C33.9372 26.8229 34.1688 27.5963 34.1117 28.3513C34.0754 28.8588 34.087 29.3716 34.0607 29.8798C34.0518 30.2556 34.0634 30.6316 34.0955 31.0062C34.1163 31.3745 34.0654 31.7322 34.0368 32.0983C34.002 32.5453 34.0237 33.0038 34.0244 33.4524C34.0244 34.0019 34.0314 34.5552 34.0507 35.1047C34.063 35.4684 34.1117 35.8131 34.0723 36.1745C34.0555 36.336 34.0475 36.4983 34.0484 36.6606C34.0484 37.5532 34.0407 38.4481 34.0746 39.3353C34.0878 39.683 34.1156 40.0231 34.1024 40.37C34.0916 40.7399 34.0669 41.0968 34.2831 41.4117Z" fill="#FDC010"/>
<path d="M22.7506 26.7158C22.7158 27.6106 22.0379 28.4069 21.258 28.8074C20.8495 29.0176 20.404 29.1131 19.9492 28.9877C19.5739 28.8823 19.1391 28.6179 18.9307 28.2801C18.6697 27.8552 18.4728 27.5037 18.3901 27.0031C18.3206 26.5272 18.4293 26.0425 18.6959 25.6405C19.1098 24.9833 19.9669 24.6318 20.726 24.7708C21.1854 24.8543 21.6175 25.0468 21.9854 25.3318C22.4518 25.7062 22.6958 26.1258 22.7506 26.7158Z" fill="#FDC010"/>
</g>
<defs>
<clipPath id="clip0_1409_1466">
<rect width="40" height="35" fill="white" transform="translate(5 7)"/>
</clipPath>
</defs>
</svg>
