<svg width="50" height="50" viewBox="0 0 50 50" fill="none" xmlns="http://www.w3.org/2000/svg">
<path d="M25 47C37.1503 47 47 37.1503 47 25C47 12.8497 37.1503 3 25 3C12.8497 3 3 12.8497 3 25C3 37.1503 12.8497 47 25 47Z" fill="white"/>
<mask id="mask0_1409_3225" style="mask-type:luminance" maskUnits="userSpaceOnUse" x="5" y="6" width="39" height="38">
<path d="M5.99121 6.08789H43.8158V43.9124H5.99121V6.08789Z" fill="white"/>
</mask>
<g mask="url(#mask0_1409_3225)">
<path d="M30.3249 8.02099C31.9638 7.97892 33.6029 8.3151 35.1159 8.98745C33.9764 8.27413 32.765 7.68254 31.5018 7.22243C25.1974 4.91088 18.0949 6.08769 12.9256 10.3325C12.7574 10.4584 12.337 10.8366 12.1691 11.0049C12.0009 11.1732 11.6226 11.5093 11.4547 11.6772C11.2444 11.8876 10.9923 12.1817 10.782 12.3917C10.6141 12.602 10.2779 12.9803 10.1517 13.1481C9.98343 13.4006 9.77347 13.6526 9.64726 13.863C9.52143 14.0308 9.22695 14.4932 9.05905 14.7032C9.01698 14.7873 8.84869 15.0394 8.80701 15.1239C8.76494 15.1656 8.63874 15.4176 8.59667 15.4597C8.51253 15.5859 8.21842 16.1324 8.13428 16.2586C8.05053 16.4686 7.7981 16.9306 7.71396 17.141C7.6302 17.3509 7.46192 17.6871 7.37778 17.8974C7.33571 17.9816 7.12575 18.5698 7.08368 18.6539C6.99954 18.8218 6.91578 19.1163 6.87371 19.2842C6.7475 19.6204 6.66336 20.0407 6.53753 20.419C6.49546 20.6293 6.36926 21.1754 6.32719 21.3858L6.28512 21.5537C5.44448 25.9668 6.28512 30.6316 8.55459 34.5403C8.80701 34.9185 9.10112 35.4226 9.35315 35.8008C9.47936 35.9691 9.64725 36.2215 9.77347 36.3473L10.1938 36.8939C10.32 37.0618 10.6982 37.4821 10.8241 37.6504C11.0344 37.8603 11.2865 38.1544 11.4964 38.3644L11.9588 38.8268L12.2112 39.0371L12.2529 39.0792L12.337 39.1213L12.4633 39.2054C12.6312 39.3312 12.8415 39.4574 13.0094 39.5837L13.1356 39.6674C13.1777 39.7099 13.2198 39.7099 13.2618 39.7516C13.4297 39.8357 13.6821 40.0036 13.808 40.0877C13.8921 40.1302 14.0183 40.2139 14.1024 40.256C14.1862 40.2981 14.4386 40.4239 14.5645 40.466C14.6907 40.5501 14.9006 40.5922 15.0268 40.6763L16.0354 41.0546C16.2036 41.0966 16.4136 41.1804 16.5819 41.2225C16.7081 41.2645 16.9601 41.3066 17.0864 41.3487C17.2122 41.3907 17.4225 41.3907 17.5904 41.4328C18.1611 41.5164 18.737 41.5584 19.3138 41.5586C20.7005 41.5166 22.0873 41.2225 23.3482 40.6763C26.038 39.5416 28.2654 37.2721 29.316 34.4982L29.4422 34.2041C29.4843 34.1199 29.5685 33.8258 29.6105 33.7417C29.6943 33.4897 29.7784 33.1952 29.8205 32.9431C29.8205 32.859 29.8626 32.6911 29.9046 32.607C29.9888 32.1446 30.0725 31.5984 30.0725 31.136V30.5474C29.6943 30.5474 29.3581 30.5054 28.9799 30.4637C23.222 29.8751 18.8514 24.8738 19.0197 19.0322C19.1455 12.854 24.273 7.97892 30.3249 8.02099ZM15.9516 37.44C15.2372 37.0197 14.5224 36.5156 13.9342 35.927C11.3285 33.4055 9.5635 30.0434 8.9749 26.4288C7.88224 20.0411 10.53 13.4843 15.7833 9.66018C18.7252 7.51653 22.4239 6.33973 26.0801 6.46594C21.7511 6.6759 17.5067 8.48338 14.4386 11.5935C10.6141 15.4176 8.80701 20.9655 9.68933 26.3026C10.2779 30.0013 12.1271 33.5317 14.9006 36.0532C17.7587 38.5747 22.0456 39.1633 25.4915 37.5241C22.5917 39.2054 18.8514 39.1213 15.9516 37.44ZM16.4977 32.859C9.73139 26.093 10.9503 14.6194 19.0197 9.40776C20.0852 8.72817 21.228 8.17803 22.4239 7.76895C24.3151 7.13829 26.3321 6.88625 28.3075 7.05453C24.3568 7.01208 20.4485 8.52506 17.6325 11.2152C11.7068 16.7627 11.2865 26.0926 16.7081 32.1866C16.8339 32.3129 17.0443 32.5649 17.2122 32.7332C19.7761 35.3809 24.0206 36.1374 27.2569 34.2878C23.8948 36.5573 19.2296 35.7591 16.4977 32.859ZM18.3469 27.858L18.6831 28.3621L19.0613 28.8666L19.4816 29.3706C19.902 29.833 20.3223 30.2954 20.8267 30.6737C22.8021 32.2287 25.5757 32.859 28.0134 32.0184C26.4163 32.7332 24.5671 32.7748 22.8859 32.2708C21.3729 31.8084 20.0702 30.9257 19.0613 29.791C17.0864 27.6839 15.8733 24.9766 15.6154 22.1002C14.7748 13.6947 22.0456 6.54969 30.4508 7.81064C28.5175 7.72688 26.5846 7.97892 24.8192 8.65127C24.3568 8.81955 23.8106 9.07197 23.3903 9.32362L22.97 9.53397C22.8859 9.57604 22.6338 9.74394 22.5497 9.78601C22.3818 9.87015 22.1714 10.0384 22.0035 10.1222C21.8353 10.2484 21.6253 10.3746 21.4991 10.5004C16.0354 14.4932 14.6486 22.1427 18.3469 27.858Z" fill="black"/>
<path d="M36.6709 39.6253C36.8388 39.4995 37.2591 39.1212 37.4274 38.9529C37.5953 38.7846 37.9735 38.4485 38.1418 38.2806C38.3518 38.0702 38.6042 37.7761 38.8142 37.5662C38.9824 37.3558 39.3186 36.9776 39.4444 36.8097C39.6127 36.5993 39.8227 36.3473 39.9489 36.1369C40.0751 35.969 40.3692 35.5066 40.5371 35.2967C40.5792 35.2125 40.7475 34.9605 40.7895 34.876C40.8316 34.8343 40.9574 34.5823 40.9995 34.5402C41.0836 34.414 41.3777 33.8675 41.4619 33.7412C41.546 33.5313 41.7981 33.0689 41.8822 32.8589C41.9663 32.649 42.1342 32.3128 42.2184 32.1024C42.2604 32.0183 42.4704 31.4301 42.5125 31.3459C42.5966 31.178 42.6808 30.8836 42.7228 30.7157C42.8487 30.3795 42.9328 29.9592 43.059 29.5809C43.1011 29.3706 43.2269 28.8244 43.269 28.6141L43.311 28.4462C44.1517 24.0331 43.311 19.3683 41.0416 15.4596C40.7895 15.0814 40.4954 14.5769 40.243 14.1987C40.1589 14.0308 39.9489 13.8204 39.8648 13.6525L39.4444 13.106C39.3186 12.9381 38.9404 12.5178 38.8142 12.3495C38.6042 12.1396 38.3518 11.8455 38.1418 11.6355L37.6794 11.1727L37.4274 10.9627L37.3853 10.9207L37.3012 10.8786L37.0912 10.7528C36.9229 10.6266 36.713 10.5004 36.5447 10.3745L36.4185 10.2904C36.3764 10.2479 36.3347 10.2479 36.2927 10.2063C36.1244 10.1221 35.8723 9.95422 35.7461 9.87008C35.662 9.82801 35.5362 9.74387 35.452 9.7018C35.3679 9.65973 35.1158 9.53391 34.9896 9.49184C34.8634 9.4077 34.6535 9.36563 34.5272 9.28149L33.5187 8.90324C33.3504 8.86117 33.1405 8.77742 32.9722 8.73535C32.8464 8.69328 32.594 8.65121 32.4681 8.60914C32.3419 8.56706 32.132 8.56706 31.9637 8.52499C31.3932 8.44132 30.8173 8.39927 30.2407 8.39917C28.8536 8.44124 27.4668 8.73496 26.2058 9.28149C23.5161 10.4162 21.2887 12.6857 20.2381 15.4596L20.1118 15.7537C20.0702 15.8379 19.986 16.132 19.944 16.2161C19.8598 16.4682 19.7757 16.7626 19.7336 17.0147C19.7336 17.0988 19.6919 17.2667 19.6498 17.3509C19.5657 17.8132 19.4816 18.3594 19.4816 18.8218V19.4524C25.7018 19.4941 30.661 24.7054 30.4928 30.9256C30.3245 37.1038 25.2394 41.9368 19.1875 41.9368C17.5483 41.9789 15.9095 41.6427 14.3965 40.9704C15.536 41.6837 16.7474 42.2753 18.0107 42.7354C24.3988 45.0469 31.4592 43.8701 36.6709 39.6253ZM33.6449 12.5599C34.3594 12.9802 35.0738 13.4843 35.662 14.0729C38.2676 16.5944 40.033 19.9565 40.6213 23.5711C41.7139 29.9588 39.0241 36.5572 33.7708 40.3397C30.8289 42.4833 27.1306 43.6602 23.4744 43.5339C27.845 43.3657 32.0899 41.5586 35.1158 38.4485C38.9824 34.6239 40.7475 29.0765 39.8648 23.6969C39.2766 19.9986 37.4274 16.4682 34.6535 13.9466C31.7958 11.4251 27.5089 10.8365 24.0626 12.4757C27.0044 10.7945 30.7448 10.8786 33.6449 12.5599ZM33.0984 17.1409C39.8648 23.9069 38.6459 35.3804 30.5769 40.5921C29.5113 41.2717 28.3685 41.8218 27.1727 42.2309C25.2815 42.8616 23.264 43.1136 21.2887 42.9453C25.2394 42.9874 29.1481 41.4744 31.9637 38.7846C37.9315 33.1951 38.3097 23.8652 32.9305 17.8132C32.8043 17.687 32.594 17.435 32.4261 17.2667C29.8625 14.619 25.6176 13.8625 22.3813 15.7117C25.7018 13.4422 30.3665 14.2411 33.0984 17.1409ZM24.8611 41.4324C25.3235 41.2645 25.8697 41.0124 26.29 40.76L26.7103 40.55C26.7944 40.508 27.0465 40.3397 27.1306 40.2976C27.2985 40.2139 27.5089 40.0456 27.6768 39.9618C27.845 39.8356 28.055 39.7094 28.1812 39.5836C33.6029 35.5066 34.9476 27.858 31.2913 22.1418L30.9131 21.6378L30.5348 21.1333L30.1145 20.6289C29.6942 20.1669 29.2739 19.7045 28.7698 19.3262C26.7944 17.7712 24.0205 17.1409 21.5831 17.9811C23.1799 17.2671 25.029 17.2246 26.7103 17.7291C28.2233 18.1915 29.5263 19.0742 30.5348 20.2089C32.5099 22.3159 33.7231 25.0233 33.9811 27.8997C34.8217 36.3052 27.5509 43.4498 19.1454 42.1889C21.1208 42.3992 23.0541 42.1051 24.8611 41.4324Z" fill="black"/>
<path d="M19.9862 19.5366C19.8599 19.5366 19.7341 19.4941 19.6079 19.4941V19.5366C19.902 19.5366 20.1961 19.5787 20.4906 19.6207C20.3223 19.5783 20.1544 19.5783 19.9862 19.5366Z" fill="black"/>
</g>
</svg>
