<svg width="27" height="27" viewBox="0 0 27 27" fill="none" xmlns="http://www.w3.org/2000/svg">
<path d="M11.2351 10.571C11.1909 10.571 11.1468 10.5664 11.1026 10.5585C10.8738 10.5142 10.6824 10.3564 10.594 10.1395L8.30847 4.54067C8.1635 4.18642 8.33338 3.78108 8.68675 3.63573C9.04011 3.49039 9.44446 3.66072 9.58942 4.01497L11.4106 8.47723C11.8422 7.74148 12.2726 6.62307 11.9951 5.35024C11.6066 3.57328 10.047 2.22098 8.12044 1.93599L6.07724 6.57766C5.92321 6.92851 5.51321 7.08745 5.16437 6.93303C4.81439 6.77861 4.65583 6.36873 4.80985 6.01788L7.05695 0.914095C7.1736 0.649538 7.44202 0.48717 7.72856 0.500795C10.4853 0.654079 12.797 2.52641 13.3485 5.05276C13.9805 7.94359 11.9634 10.1225 11.7312 10.3609C11.5998 10.496 11.4197 10.571 11.2351 10.571Z" fill="#FF1B00"/>
<path d="M3.27171 15.6001C3.02254 15.6001 2.78129 15.465 2.65783 15.2277L0.0789077 10.2874C-0.054739 10.0308 -0.0162306 9.71856 0.176311 9.50282C2.01565 7.43747 4.91624 6.79255 7.23014 7.93593C9.87928 9.24394 10.3199 12.1825 10.3618 12.5129C10.3912 12.7445 10.3018 12.9761 10.1239 13.1283C9.9461 13.2804 9.70487 13.3315 9.48062 13.2657L3.68849 11.567C3.32153 11.4592 3.11087 11.0743 3.21848 10.7053C3.32606 10.3374 3.71002 10.1262 4.07811 10.234L8.69346 11.5886C8.38879 10.7916 7.78511 9.75716 6.61854 9.1815C4.99098 8.37762 2.96363 8.75684 1.53996 10.0899L3.88558 14.5851C4.06339 14.9245 3.932 15.3447 3.59335 15.5218C3.49143 15.5752 3.38157 15.6013 3.27283 15.6013L3.27171 15.6001Z" fill="#FF1B00"/>
<path d="M8.63118 22.6711C8.58701 22.6711 8.54282 22.6666 8.49866 22.6586L3.03726 21.5993C2.75412 21.5448 2.53438 21.3188 2.48568 21.035C2.02132 18.3065 3.32721 15.6303 5.66149 14.5289C8.33216 13.2686 10.8998 14.7549 11.1829 14.9286C11.3823 15.0501 11.5068 15.2647 11.5148 15.4986C11.5227 15.7325 11.4117 15.9539 11.2214 16.089L6.28556 19.5691C5.97295 19.7894 5.54144 19.7145 5.32059 19.4011C5.10087 19.0877 5.1756 18.654 5.48821 18.4337L9.42174 15.6598C8.60965 15.4021 7.42608 15.2295 6.25046 15.7847C4.60817 16.5602 3.64093 18.386 3.7927 20.3321L8.76029 21.2961C9.13517 21.3688 9.38095 21.7333 9.30847 22.1091C9.2439 22.4407 8.95395 22.6711 8.6289 22.6711H8.63118Z" fill="#FF1B00"/>
<path d="M13.2546 26.4989C13.1402 26.4989 13.0247 26.4706 12.9205 26.4127C10.5024 25.0751 9.23051 22.3841 9.82626 19.8668C10.5081 16.9885 13.2682 15.9019 13.5808 15.7883C13.8005 15.7077 14.0452 15.7441 14.2321 15.8837C14.419 16.0234 14.5232 16.2482 14.5096 16.4821L14.146 22.5215C14.1233 22.9041 13.796 23.1959 13.4132 23.1732C13.0315 23.1505 12.7404 22.8212 12.7631 22.4386L13.0519 17.6266C12.344 18.1024 11.4731 18.9233 11.1729 20.1893C10.7539 21.9594 11.5739 23.8568 13.1867 24.9512L17.0353 21.6585C17.3263 21.4099 17.7635 21.444 18.0116 21.7358C18.2596 22.0276 18.2256 22.4658 17.9345 22.7145L13.7032 26.3343C13.5752 26.4444 13.4143 26.5001 13.2535 26.5001L13.2546 26.4989Z" fill="#FF1B00"/>
<path d="M21.1544 22.084C19.3728 22.084 17.675 21.3255 16.5866 19.9324C14.7665 17.6024 15.6409 14.7627 15.7462 14.4459C15.821 14.2245 16.0011 14.0542 16.2264 13.9951C16.4518 13.9361 16.6931 13.9951 16.8664 14.1507L21.3492 18.2008C21.6335 18.4574 21.6561 18.8968 21.4002 19.1807C21.1442 19.4657 20.7059 19.4884 20.4227 19.2318L16.8494 16.0049C16.7792 16.8553 16.8754 18.0509 17.6762 19.0762C18.7952 20.508 20.7863 21.0485 22.6449 20.4671L22.4761 15.3974C22.4637 15.0136 22.7627 14.6934 23.1455 14.6809C23.5284 14.665 23.8478 14.9682 23.8602 15.352L24.0459 20.9247C24.0551 21.2131 23.8851 21.4777 23.6188 21.5889C22.8137 21.9239 21.9744 22.0851 21.1532 22.0851L21.1544 22.084Z" fill="#FF1B00"/>
<path d="M20.8996 14.6734C20.8838 14.6734 20.8691 14.6734 20.8532 14.6734C17.9016 14.6473 16.231 12.1913 16.051 11.912C15.9241 11.7156 15.9049 11.4681 15.9989 11.2546C16.0929 11.04 16.2888 10.889 16.5187 10.8504L22.4717 9.86142C22.8488 9.8001 23.2056 10.0544 23.2679 10.4326C23.3302 10.8107 23.0753 11.1683 22.6982 11.2308L17.9537 12.0187C18.5744 12.6046 19.5654 13.2734 20.8645 13.2848C20.8758 13.2848 20.8883 13.2848 20.8996 13.2848C22.7005 13.2848 24.3461 12.0653 25.0472 10.2565L20.988 7.2272C20.681 6.99786 20.6176 6.56299 20.8464 6.25527C21.0752 5.94758 21.509 5.88399 21.8159 6.11334L26.2784 9.44245C26.5095 9.61502 26.6102 9.91365 26.5308 10.1907C25.7732 12.8351 23.4627 14.6723 20.9007 14.6723L20.8996 14.6734Z" fill="#FF1B00"/>
<path d="M14.7484 10.1147C14.5003 10.1147 14.3293 10.0999 14.2625 10.0943C14.0303 10.0716 13.8253 9.9319 13.7177 9.72525C13.6101 9.51748 13.6135 9.26993 13.7267 9.06555L16.667 3.78237C16.8539 3.44741 17.2752 3.3282 17.6093 3.51442C17.9434 3.70175 18.0623 4.12414 17.8766 4.45909L15.5332 8.6693C16.3759 8.54779 17.5164 8.189 18.3353 7.17732C19.4792 5.76485 19.5608 3.69835 18.5822 2.01109L13.6894 3.30435C13.3201 3.402 12.9407 3.18059 12.8433 2.81044C12.7459 2.43915 12.9668 2.05992 13.336 1.96227L18.7136 0.539568C18.9922 0.465764 19.2878 0.573631 19.4543 0.808665C21.0535 3.06477 21.0354 6.04303 19.4101 8.05163C17.923 9.88876 15.7348 10.1147 14.7484 10.1147Z" fill="#FF1B00"/>
</svg>
