<svg width="24" height="24" viewBox="0 0 24 24" fill="none" xmlns="http://www.w3.org/2000/svg">
<g clip-path="url(#clip0_665_1847)">
<path d="M8.52656 18.6281C8.52656 18.7219 8.41875 18.7969 8.28281 18.7969C8.12812 18.8109 8.02031 18.7359 8.02031 18.6281C8.02031 18.5344 8.12813 18.4594 8.26406 18.4594C8.40469 18.4453 8.52656 18.5203 8.52656 18.6281ZM7.06875 18.4172C7.03594 18.5109 7.12969 18.6187 7.27031 18.6469C7.39219 18.6937 7.53281 18.6469 7.56094 18.5531C7.58906 18.4594 7.5 18.3516 7.35938 18.3094C7.2375 18.2766 7.10156 18.3234 7.06875 18.4172ZM9.14062 18.3375C9.00469 18.3703 8.91094 18.4594 8.925 18.5672C8.93906 18.6609 9.06094 18.7219 9.20156 18.6891C9.3375 18.6562 9.43125 18.5672 9.41719 18.4734C9.40312 18.3844 9.27656 18.3234 9.14062 18.3375ZM12.225 0.375C5.72344 0.375 0.75 5.31094 0.75 11.8125C0.75 17.0109 4.02188 21.4594 8.69531 23.025C9.29531 23.1328 9.50625 22.7625 9.50625 22.4578C9.50625 22.1672 9.49219 20.5641 9.49219 19.5797C9.49219 19.5797 6.21094 20.2828 5.52188 18.1828C5.52188 18.1828 4.9875 16.8187 4.21875 16.4672C4.21875 16.4672 3.14531 15.7312 4.29375 15.7453C4.29375 15.7453 5.46094 15.8391 6.10312 16.9547C7.12969 18.7641 8.85 18.2437 9.52031 17.9344C9.62813 17.1844 9.93281 16.6641 10.2703 16.3547C7.65 16.0641 5.00625 15.6844 5.00625 11.175C5.00625 9.88594 5.3625 9.23906 6.1125 8.41406C5.99062 8.10938 5.59219 6.85312 6.23438 5.23125C7.21406 4.92656 9.46875 6.49688 9.46875 6.49688C10.4062 6.23438 11.4141 6.09844 12.4125 6.09844C13.4109 6.09844 14.4188 6.23438 15.3563 6.49688C15.3563 6.49688 17.6109 4.92188 18.5906 5.23125C19.2328 6.85781 18.8344 8.10938 18.7125 8.41406C19.4625 9.24375 19.9219 9.89062 19.9219 11.175C19.9219 15.6984 17.1609 16.0594 14.5406 16.3547C14.9719 16.725 15.3375 17.4281 15.3375 18.5297C15.3375 20.1094 15.3234 22.0641 15.3234 22.4484C15.3234 22.7531 15.5391 23.1234 16.1344 23.0156C20.8219 21.4594 24 17.0109 24 11.8125C24 5.31094 18.7266 0.375 12.225 0.375ZM5.30625 16.5422C5.24531 16.5891 5.25938 16.6969 5.33906 16.7859C5.41406 16.8609 5.52187 16.8938 5.58281 16.8328C5.64375 16.7859 5.62969 16.6781 5.55 16.5891C5.475 16.5141 5.36719 16.4812 5.30625 16.5422ZM4.8 16.1625C4.76719 16.2234 4.81406 16.2984 4.90781 16.3453C4.98281 16.3922 5.07656 16.3781 5.10938 16.3125C5.14219 16.2516 5.09531 16.1766 5.00156 16.1297C4.90781 16.1016 4.83281 16.1156 4.8 16.1625ZM6.31875 17.8312C6.24375 17.8922 6.27187 18.0328 6.37969 18.1219C6.4875 18.2297 6.62344 18.2437 6.68437 18.1688C6.74531 18.1078 6.71719 17.9672 6.62344 17.8781C6.52031 17.7703 6.37969 17.7563 6.31875 17.8312ZM5.78438 17.1422C5.70937 17.1891 5.70937 17.3109 5.78438 17.4188C5.85938 17.5266 5.98594 17.5734 6.04688 17.5266C6.12187 17.4656 6.12187 17.3438 6.04688 17.2359C5.98125 17.1281 5.85938 17.0813 5.78438 17.1422Z" fill="white"/>
</g>
<defs>
<clipPath id="clip0_665_1847">
<rect width="23.25" height="24" fill="white" transform="translate(0.75)"/>
</clipPath>
</defs>
</svg>
