<svg width="84" height="84" viewBox="0 0 84 84" fill="none" xmlns="http://www.w3.org/2000/svg">
<path d="M83.1443 41.8222C83.1443 64.6438 64.6438 83.1443 41.8222 83.1443C19.0006 83.1443 0.5 64.6438 0.5 41.8222C0.5 19.0006 19.0006 0.5 41.8222 0.5C64.6438 0.5 83.1443 19.0006 83.1443 41.8222Z" fill="black" stroke="white"/>
<path d="M28.5935 22.2815L13.3008 50.7202L33.0522 51.484L38.7326 67.6487L65.4206 51.5577L50.7928 35.5587L57.405 19.5391" stroke="white" stroke-width="0.40604" stroke-miterlimit="1.5" stroke-linecap="round" stroke-linejoin="round"/>
<path d="M75.1089 50.1565C73.5598 49.7784 71.4386 49.3532 69.3453 47.2961C67.2539 45.241 66.8392 43.2114 66.4345 41.6343C66.0298 43.2114 65.6172 45.241 63.5258 47.2961C61.4305 49.3532 59.3093 49.7784 57.7622 50.1565C59.3093 50.5346 61.4305 50.9616 63.5258 53.0168C65.6172 55.0719 66.0298 57.1016 66.4345 58.6786C66.8392 57.1016 67.2539 55.0719 69.3453 53.0168C71.4386 50.9616 73.5598 50.5346 75.1089 50.1565Z" fill="#FD7503"/>
<path d="M37.1323 52.3048C36.403 52.1022 35.4034 51.8691 34.4343 50.8564C33.4661 49.8446 33.2913 48.8687 33.1164 48.1092C32.9081 48.8573 32.6913 49.8215 31.6796 50.7742C30.666 51.7278 29.6574 51.9011 28.921 52.0599C29.6494 52.2625 30.649 52.4966 31.6191 53.5084C32.5873 54.5201 32.7611 55.496 32.936 56.2555C33.1443 55.5074 33.362 54.5432 34.3737 53.5905C35.3864 52.6378 36.395 52.4636 37.1323 52.3048Z" fill="#FD7503"/>
<path d="M54.6462 35.6752C53.9155 35.4937 52.9148 35.2896 51.9272 34.302C50.9406 33.3154 50.745 32.3411 50.5541 31.584C50.3632 32.3411 50.1685 33.3154 49.1819 34.302C48.1934 35.2896 47.1927 35.4937 46.4629 35.6752C47.1927 35.8567 48.1934 36.0617 49.1819 37.0483C50.1685 38.0349 50.3632 39.0093 50.5541 39.7664C50.745 39.0093 50.9406 38.0349 51.9272 37.0483C52.9148 36.0617 53.9155 35.8567 54.6462 35.6752Z" fill="#FD7503"/>
<path d="M61.1374 19.2592C60.4067 19.0776 59.406 18.8735 58.4184 17.886C57.4318 16.8994 57.2362 15.9251 57.0453 15.168C56.8544 15.9251 56.6597 16.8994 55.6731 17.886C54.6846 18.8735 53.6839 19.0776 52.9541 19.2592C53.6839 19.4407 54.6846 19.6457 55.6731 20.6323C56.6597 21.6189 56.8544 22.5932 57.0453 23.3503C57.2362 22.5932 57.4318 21.6189 58.4184 20.6323C59.406 19.6457 60.4067 19.4407 61.1374 19.2592Z" fill="#FD7503"/>
<path d="M16.7244 51.1307C15.9936 50.9492 14.9929 50.7451 14.0054 49.7576C13.0188 48.771 12.8231 47.7967 12.6322 47.0396C12.4413 47.7967 12.2466 48.771 11.26 49.7576C10.2716 50.7451 9.27085 50.9492 8.54102 51.1307C9.27085 51.3123 10.2716 51.5173 11.26 52.5039C12.2466 53.4904 12.4413 54.4648 12.6322 55.2219C12.8231 54.4648 13.0188 53.4904 14.0054 52.5039C14.9929 51.5173 15.9936 51.3123 16.7244 51.1307Z" fill="#FD7503"/>
<path d="M42.6218 67.3939C41.8911 67.2124 40.8903 67.0083 39.9028 66.0208C38.9162 65.0342 38.7206 64.0598 38.5297 63.3027C38.3387 64.0598 38.1441 65.0342 37.1575 66.0208C36.169 67.0083 35.1683 67.2124 34.4385 67.3939C35.1683 67.5754 36.169 67.7805 37.1575 68.767C38.1441 69.7536 38.3387 70.728 38.5297 71.4851C38.7206 70.728 38.9162 69.7536 39.9028 68.767C40.8903 67.7805 41.8911 67.5754 42.6218 67.3939Z" fill="#FD7503"/>
<path d="M37.2625 22.1657C35.4749 21.7217 33.0269 21.2224 30.6112 18.8067C28.1977 16.3933 27.7192 14.0098 27.2521 12.1577C26.7851 14.0098 26.3089 16.3933 23.8955 18.8067C21.4774 21.2224 19.0295 21.7217 17.2441 22.1657C19.0295 22.6097 21.4774 23.1113 23.8955 25.5247C26.3089 27.9381 26.7851 30.3216 27.2521 32.1737C27.7192 30.3216 28.1977 27.9381 30.6112 25.5247C33.0269 23.1113 35.4749 22.6097 37.2625 22.1657Z" fill="#FFD644"/>
</svg>
